Source : WEB DL HDClub (Thanks)

www.imdb.com/title/tt1321870

Format                                   : AVI
Format/Info                              : Audio Video Interleave
File size                                : 703 MiB
Duration                                 : 1h 52mn
Overall bit rate                         : 871 Kbps
Writing library                          : VirtualDub build 32842/release

Video
ID                                       : 0
Format                                   : MPEG-4 Visual
Format profile                           : Advanced Simple@L5
Format settings, BVOP                    : 4
Format settings, QPel                    : No
Format settings, GMC                     : No warppoints
Format settings, Matrix                  : Default (H.263)
Muxing mode                              : Packed bitstream
Codec ID                                 : XVID
Codec ID/Hint                            : XviD
Duration                                 : 1h 52mn
Bit rate                                 : 733 Kbps
Width                                    : 640 pixels
Height                                   : 272 pixels
Display aspect ratio                     : 2.35:1
Frame rate                               : 23.976 fps
Color space                              : YUV
Chroma subsampling                       : 4:2:0
Bit depth                                : 8 bits
Scan type                                : Progressive
Compression mode                         : Lossy
Bits/(Pixel*Frame)                       : 0.176
Stream size                              : 592 MiB (84%)
Writing library                          : XviD 1.2.0.dev47 (UTC 2006-11-01)

Audio
ID                                       : 1
Format                                   : MPEG Audio
Format version                           : Version 1
Format profile                           : Layer 3
Mode                                     : Joint stereo
Mode extension                           : MS Stereo
Codec ID                                 : 55
Codec ID/Hint                            : MP3
Duration                                 : 1h 52mn
Bit rate mode                            : Constant
Bit rate                                 : 128 Kbps
Channel(s)                               : 2 channels
Sampling rate                            : 44.1 KHz
Compression mode                         : Lossy
Stream size                              : 103 MiB (15%)
Alignment                                : Split accross interleaves
Interleave, duration                     : 42 ms (1.00 video frame)
Interleave, preload duration             : 500 ms
Writing library                          : LAME3.97 (beta)

 
http://www.shotpix.com/images/71867862230267175146.png 
http://www.shotpix.com/images/89612231918247563109.png 
http://www.shotpix.com/images/22737794867018031975.png